<svg xmlns="http://www.w3.org/2000/svg" viewBox="0 0 600 420" width="600" height="420" role="presentation">
<defs>
<linearGradient id="g" x1="0" y1="0" x2="1" y2="1">
<stop offset="0" stop-color="#290E36"/><stop offset="1" stop-color="#4A1C60"/>
</linearGradient>
<radialGradient id="glow" cx="0.64" cy="0.39" r="0.75">
<stop offset="0" stop-color="#9B34CA" stop-opacity="0.42"/><stop offset="1" stop-color="#9B34CA" stop-opacity="0"/>
</radialGradient>
<filter id="soft"><feGaussianBlur stdDeviation="18.9"/></filter>
</defs>
<rect width="600" height="420" fill="url(#g)"/>
<g filter="url(#soft)"><path d="M342.5,210.9 Q294.5,331.3 251.2,383.2 Q153.7,362.8 41.1,383.6 Q-84.8,367.5 -162.5,377.8 Q-194.0,308.5 -176.1,210.9 Q-184.8,104.0 -154.3,50.6 Q-76.3,59.6 41.1,-6.8 Q176.4,14.8 263.9,28.2 Q282.0,117.4 317.1,210.9 Z" fill="#4A1C60" opacity="0.145"/><path d="M357.3,285.2 Q345.5,341.4 295.7,375.0 Q242.4,389.9 186.2,426.4 Q111.9,414.1 47.6,398.9 Q21.7,346.2 7.3,285.2 Q37.2,244.3 62.5,183.8 Q113.6,182.9 186.2,185.0 Q237.6,177.9 290.6,199.6 Q318.0,211.9 326.0,285.2 Z" fill="#9B34CA" opacity="0.206"/><path d="M275.0,219.6 Q258.2,265.1 267.2,331.0 Q196.3,317.8 131.3,317.5 Q78.5,326.7 44.4,290.8 Q-15.0,265.0 2.3,219.6 Q-28.4,154.1 14.1,123.4 Q88.7,113.6 131.3,100.7 Q201.4,99.4 249.8,122.4 Q261.1,160.2 305.6,219.6 Z" fill="#BC98CD" opacity="0.214"/><path d="M771.2,13.9 Q668.1,67.7 630.6,140.3 Q566.2,175.6 476.4,184.2 Q386.7,256.4 253.2,196.9 Q269.1,98.5 246.9,13.9 Q263.6,-84.4 315.4,-118.1 Q379.0,-168.5 476.4,-189.0 Q592.6,-209.4 675.6,-149.5 Q755.1,-115.0 795.4,13.9 Z" fill="#4A1C60" opacity="0.168"/><path d="M189.0,88.2 Q173.6,129.2 154.8,197.5 Q64.7,198.8 21.5,228.4 Q-43.8,204.4 -73.0,165.7 Q-127.5,141.8 -164.9,88.2 Q-80.9,52.2 -82.7,2.8 Q-39.7,-25.0 21.5,-68.2 Q61.9,-34.9 112.5,13.6 Q147.3,56.8 186.1,88.2 Z" fill="#9B34CA" opacity="0.229"/><path d="M-60,105 C180,15 420,195 660,69" fill="none" stroke="#BC98CD" stroke-width="2.5" opacity="0.146" stroke-linecap="round"/><path d="M-60,214 C180,154 420,274 660,190" fill="none" stroke="#BC98CD" stroke-width="2.5" opacity="0.242" stroke-linecap="round"/><path d="M-60,323 C180,261 420,385 660,299" fill="none" stroke="#BC98CD" stroke-width="2.5" opacity="0.184" stroke-linecap="round"/></g>
<rect width="600" height="420" fill="url(#glow)"/>
<path d="M198,100.8 L300,336 L402,100.8 L360,100.8 L300,260.4 L240,100.8 Z" fill="#FFFFFF" opacity="0.05"/>
</svg>